Coordinates
version=1
nRows=17
nColumns=33
inDegrees=yes

Units are S.I. units (second, meters, Newtons, ...)
Angles are in degrees.

endheader
time	ground_thorax_rot_x	ground_thorax_rot_y	ground_thorax_rot_z	ground_thorax_tx	ground_thorax_ty	ground_thorax_tz	clav_prot_r	clav_elev_r	scapula_abduction_r	scapula_elevation_r	scapula_upward_rot_r	scapula_winging_r	shoulder_elv_r	plane_of_elev_r	axial_rot_r	elbow_flexion_r	pro_sup_r	wrist_flex_r	wrist_dev_r	clav_prot_l	clav_elev_l	scapula_abduction_l	scapula_elevation_l	scapula_upward_rot_l	scapula_winging_l	shoulder_elv_l	plane_of_elev_l	axial_rot_l	elbow_flexion_l	pro_sup_l	wrist_flex_l	wrist_dev_l
      0.07000000	     -1.11387211	      6.56027915	     -8.58203886	     -0.08484126	      1.01613636	      0.00272517	     -8.16136148	    -17.45624400	    -10.86950590	     -8.31166459	     -2.76831881	      7.45198552	     34.11410359	      0.44343743	      7.91765814	     75.71601781	     24.13987136	     20.87037860	     -8.88923208	      7.43106824	     -9.86886612	    -14.29450484	     -1.34907749	    -10.68760665	      2.04087690	     41.00863826	      9.40134784	     -2.04645580	     80.59349324	     15.44689883	    -14.53694423	    -21.24170051
      0.08000000	     -1.11413309	      6.55972472	     -8.57736810	     -0.08479854	      1.01633998	      0.00277946	     -8.16177945	    -17.45587578	    -10.86948934	     -8.31230438	     -2.76651286	      7.45181411	     34.11547042	      0.44445108	      7.91708004	     75.71781176	     24.13965036	     20.87080119	     -8.88894954	      7.43097891	     -9.86894099	    -14.29490175	     -1.34827916	    -10.68474381	      2.04072444	     41.00991731	      9.40327623	     -2.04602978	     80.59545576	     15.44684916	    -14.53668521	    -21.24196260
      0.09000000	     -1.11551480	      6.55948342	     -8.52272321	     -0.08506544	      1.01628212	      0.00284270	     -8.16536037	    -17.45359285	    -10.86779959	     -8.31841070	     -2.74491175	      7.44928488	     34.13388189	      0.45301324	      7.91596485	     75.75017975	     24.13664273	     20.87796535	     -8.88238315	      7.42649399	     -9.86870331	    -14.29764488	     -1.33273083	    -10.64823756	      2.04413001	     41.03044975	      9.42529544	     -2.03797693	     80.62973513	     15.44647147	    -14.53263899	    -21.24727373
      0.10000000	     -1.11610992	      6.55950015	     -8.51870343	     -0.08502544	      1.01653352	      0.00287961	     -8.16623770	    -17.45278826	    -10.86737856	     -8.31926481	     -2.74270266	      7.44864631	     34.13584115	      0.45428176	      7.91599801	     75.75345957	     24.13635754	     20.87856046	     -8.88191259	      7.42622372	     -9.86815016	    -14.29782263	     -1.33199362	    -10.64566502	      2.04450278	     41.03201219	      9.42704013	     -2.03774562	     80.63282125	     15.44647735	    -14.53233521	    -21.24778122
      0.11000000	     -1.12499060	      6.58132521	     -8.60560410	     -0.08469165	      1.01610773	      0.00285993	     -8.14248154	    -17.38669949	    -10.79011323	     -8.28798798	     -2.65100980	      7.38735293	     34.27541953	      0.36992558	      8.09420676	     76.22802021	     24.09770446	     20.96302583	     -8.74301412	      7.44459309	     -9.81340401	    -14.35123790	     -1.34703383	    -10.56273637	      2.08758592	     41.11285567	      9.39335527	     -2.09793555	     81.06088024	     15.47267888	    -14.44042472	    -21.32736877
      0.12000000	     -1.12455972	      6.58096484	     -8.59895519	     -0.08467251	      1.01638939	      0.00288166	     -8.14368375	    -17.38657311	    -10.79038343	     -8.28978355	     -2.64748567	      7.38669805	     34.27811074	      0.37260951	      8.09227028	     76.23148220	     24.09702505	     20.96322740	     -8.74250314	      7.44384920	     -9.81323673	    -14.35103768	     -1.34585649	    -10.56052236	      2.08935905	     41.11408558	      9.39505743	     -2.09767414	     81.06323917	     15.47278369	    -14.43980743	    -21.32766756
      0.13000000	     -1.11775021	      6.57787192	     -8.53229809	     -0.08503169	      1.01635544	      0.00289552	     -8.15540468	    -17.38495729	    -10.79316952	     -8.30508764	     -2.60439976	      7.38370018	     34.31275028	      0.39888405	      8.07524867	     76.28582330	     24.08770607	     20.96697758	     -8.73451408	      7.44088834	     -9.80870821	    -14.35328047	     -1.33844839	    -10.53287229	      2.09335075	     41.13276708	      9.40703596	     -2.09948161	     81.10045081	     15.47478535	    -14.43109020	    -21.33337257
      0.14000000	     -1.11704190	      6.57769377	     -8.52849902	     -0.08502421	      1.01667503	      0.00290169	     -8.15632358	    -17.38472062	    -10.79307604	     -8.30557538	     -2.60143228	      7.38300775	     34.31496815	      0.40075195	      8.07479478	     76.29066729	     24.08700412	     20.96736091	     -8.73393882	      7.44046063	     -9.80794989	    -14.35336102	     -1.33860257	    -10.53072480	      2.09425400	     41.13434508	      9.40816157	     -2.10002144	     81.10399667	     15.47491160	    -14.43051273	    -21.33393379
      0.15000000	     -0.95327890	      6.68534504	     -8.61437881	     -0.08463152	      1.01676496	      0.00285594	     -7.79523589	    -17.68020074	    -10.07473462	     -8.65038723	     -2.40021515	      7.42038746	     34.83891010	     -0.82077449	      7.34546368	     77.96131869	     22.35987733	     19.29483125	     -5.89722864	      7.76704549	    -10.05472030	    -15.11016092	     -0.85428596	     -9.89232965	      2.35993490	     40.78095830	      8.49881940	     -1.56636281	     82.05113661	     16.07524986	    -12.16525382	    -21.03506425
      0.16000000	     -0.96020259	      6.68346979	     -8.57391253	     -0.08483105	      1.01692528	      0.00285790	     -7.80009336	    -17.68151530	    -10.07363720	     -8.65984427	     -2.37900602	      7.41766035	     34.84985410	     -0.80067909	      7.34072702	     77.99117974	     22.35835480	     19.30099873	     -5.90035119	      7.76431448	    -10.05330535	    -15.11018736	     -0.84999274	     -9.87786208	      2.36428502	     40.78771525	      8.51210725	     -1.56590762	     82.06826911	     16.07683501	    -12.16465978	    -21.03799928
      0.17000000	     -0.96694531	      6.68026645	     -8.53155189	     -0.08506438	      1.01702139	      0.00285331	     -7.80683528	    -17.67976166	    -10.07349447	     -8.66853540	     -2.35192748	      7.41514699	     34.86298531	     -0.77508317	      7.33742729	     78.04915217	     22.35398061	     19.31059233	     -5.90525114	      7.76124836	    -10.04621340	    -15.10967744	     -0.84897857	     -9.86011080	      2.36612773	     40.79833311	      8.52616745	     -1.56591804	     82.10234692	     16.07841326	    -12.16420010	    -21.04396704
      0.18000000	     -0.95628617	      6.66241931	     -8.63528878	     -0.08450358	      1.01672396	      0.00288800	     -7.82229673	    -17.59446625	    -10.08929602	     -8.59919464	     -2.31858984	      7.36355489	     34.88571482	     -0.82201537	      7.41642795	     78.56445821	     22.31493797	     19.40239612	     -5.92920980	      7.74500925	     -9.94895025	    -15.08481228	     -0.92798448	     -9.83980183	      2.39101983	     40.80220688	      8.55572217	     -1.59148795	     82.48661847	     16.09855211	    -12.14993384	    -21.11031340
      0.19000000	     -0.95692122	      6.66295173	     -8.62835941	     -0.08455382	      1.01703093	      0.00291489	     -7.82444007	    -17.59363825	    -10.08936618	     -8.60080689	     -2.31546204	      7.36264223	     34.88816720	     -0.81947059	      7.41462177	     78.56833503	     22.31447361	     19.40293926	     -5.92979533	      7.74417766	     -9.94733717	    -15.08444793	     -0.92557326	     -9.83766121	      2.39125098	     40.80304868	      8.55884449	     -1.59108305	     82.49017175	     16.09860723	    -12.14987464	    -21.11079675
      0.20000000	     -0.96804429	      6.65494960	     -8.55693111	     -0.08501454	      1.01692772	      0.00288900	     -7.84324331	    -17.58283964	    -10.10642284	     -8.60547038	     -2.27462614	      7.35354213	     34.92292219	     -0.80295997	      7.38856444	     78.62200933	     22.30888553	     19.41311812	     -5.93766233	      7.73410138	     -9.94626351	    -15.07767182	     -0.91586083	     -9.80325610	      2.39441244	     40.81876943	      8.59099360	     -1.58063200	     82.53733227	     16.09809675	    -12.15096952	    -21.11762900
      0.21000000	     -0.92071344	      6.69253283	     -8.66344087	     -0.08425950	      1.01657074	      0.00284096	     -7.89048917	    -17.49100815	    -10.18862174	     -8.52119803	     -2.26839408	      7.31669651	     34.95267816	     -0.89169664	      7.37640103	     79.22888640	     22.27753426	     19.55632058	     -5.99230150	      7.69927565	     -9.88537303	    -15.00568467	     -0.98050171	     -9.82965013	      2.37672897	     40.73180897	      8.65488318	     -1.55153347	     83.03664985	     16.11182489	    -12.13909786	    -21.19326153
      0.22000000	     -0.93363530	      6.68406866	     -8.61856476	     -0.08457185	      1.01669765	      0.00281119	     -7.90374565	    -17.48380525	    -10.20059938	     -8.52462152	     -2.24260339	      7.31069989	     34.97417153	     -0.88151620	      7.35715268	     79.27483168	     22.27317871	     19.56610028	     -5.99721417	      7.69350065	     -9.88665189	    -15.00238086	     -0.97229452	     -9.81288139	      2.38004615	     40.73703998	      8.67156317	     -1.54805336	     83.05702227	     16.11413625	    -12.13577776	    -21.19506024
      0.23000000	     -0.90525697	      6.77541261	     -8.66075985	     -0.08408585	      1.01645127	      0.00265478	     -7.94821886	    -17.40741350	    -10.28741848	     -8.44786806	     -2.25780272	      7.27892495	     35.01021442	     -1.03165596	      7.29003664	     79.86188323	     22.23227169	     19.70926845	     -6.02749385	      7.65963115	     -9.87266916	    -14.93915370	     -0.99177766	     -9.82921998	      2.35915467	     40.61671874	      8.73250477	     -1.55223034	     83.41141505	     16.17418455	    -12.06255717	    -21.22774040
